<svg width="110" height="85" viewBox="0 0 110 85" fill="none" xmlns="http://www.w3.org/2000/svg">
<rect width="110" height="85" rx="16" fill="#F14635"/>
<path fill-rule="evenodd" clip-rule="evenodd" d="M17.5978 28.951H27.3123C29.3041 28.951 31.0156 29.2492 32.4469 29.8455C33.89 30.4419 34.9992 31.3245 35.7745 32.4933C36.5497 33.6622 36.9374 35.0994 36.9374 36.8049C36.9374 38.2004 36.6988 39.399 36.2217 40.4009C35.7566 41.3908 35.0947 42.2198 34.2359 42.8877C33.6504 43.3413 32.9935 43.7321 32.2654 44.0603L37.9035 54.7491V54.9995H32.1606L27.2277 45.3566H22.9649V54.9995H17.5978V28.951ZM29.6917 40.6693C29.0715 41.0032 28.2903 41.1702 27.3481 41.1702H22.9649V33.1553H27.3123C28.2665 33.1553 29.0596 33.3163 29.6917 33.6383C30.3239 33.9603 30.795 34.4255 31.1051 35.0338C31.4152 35.642 31.5702 36.3636 31.5702 37.1985C31.5702 37.9857 31.4092 38.6775 31.0872 39.2738C30.7771 39.8702 30.3119 40.3353 29.6917 40.6693Z" fill="white"/>
<path fill-rule="evenodd" clip-rule="evenodd" d="M49.6575 55.3573C48.1547 55.3573 46.8069 55.1188 45.6142 54.6417C44.4215 54.1527 43.4078 53.4788 42.5729 52.6201C41.7499 51.7614 41.1178 50.7655 40.6765 49.6324C40.2352 48.4874 40.0145 47.2708 40.0145 45.9827V45.2671C40.0145 43.8001 40.2232 42.4583 40.6407 41.2418C41.0581 40.0252 41.6545 38.9697 42.4297 38.0751C43.2169 37.1806 44.1711 36.4948 45.2922 36.0177C46.4133 35.5287 47.6776 35.2842 49.085 35.2842C50.4566 35.2842 51.6731 35.5108 52.7346 35.9641C53.7961 36.4173 54.6847 37.0614 55.4003 37.8962C56.1279 38.7311 56.6765 39.733 57.0462 40.9018C57.416 42.0588 57.6008 43.3469 57.6008 44.7662V46.913H45.2398C45.2919 47.3391 45.3809 47.7446 45.5069 48.1296C45.7335 48.7856 46.0496 49.3521 46.4551 49.8292C46.8725 50.3063 47.3735 50.676 47.9579 50.9384C48.5542 51.2008 49.2281 51.332 49.9795 51.332C50.9098 51.332 51.7745 51.1531 52.5736 50.7953C53.3847 50.4255 54.0824 49.8709 54.6668 49.1315L57.1715 51.8508C56.766 52.4352 56.2114 52.9958 55.5077 53.5325C54.8159 54.0692 53.981 54.5105 53.003 54.8564C52.025 55.1904 50.9098 55.3573 49.6575 55.3573ZM52.5378 43.0845V43.4781H45.3025C45.33 43.2824 45.3624 43.0916 45.3996 42.9056C45.5546 42.178 45.7812 41.5459 46.0794 41.0092C46.3895 40.4725 46.789 40.055 47.2781 39.7569C47.7671 39.4587 48.3515 39.3096 49.0313 39.3096C49.8304 39.3096 50.4864 39.4766 50.9993 39.8105C51.5121 40.1445 51.8938 40.5977 52.1443 41.1702C52.4067 41.7308 52.5378 42.3689 52.5378 43.0845Z" fill="white"/>
<path fill-rule="evenodd" clip-rule="evenodd" d="M71.9669 27.5198H77.1551V54.9995H72.4857L72.2321 52.9356C71.6791 53.6526 71.0241 54.2213 70.2673 54.6417C69.4086 55.1188 68.4067 55.3573 67.2617 55.3573C66.0571 55.3573 64.9837 55.1128 64.0414 54.6238C63.1111 54.1348 62.3239 53.449 61.6799 52.5664C61.0477 51.6838 60.5647 50.6462 60.2307 49.4535C59.8968 48.2608 59.7298 46.9607 59.7298 45.5534V45.1777C59.7298 43.6987 59.8968 42.3569 60.2307 41.1523C60.5647 39.9358 61.0537 38.8921 61.6978 38.0215C62.3418 37.1508 63.135 36.4769 64.0772 35.9999C65.0194 35.5228 66.0929 35.2842 67.2975 35.2842C68.4305 35.2842 69.4205 35.5228 70.2673 35.9999C70.9065 36.355 71.4731 36.8225 71.9669 37.4023V27.5198ZM64.8823 45.5534V45.1777C64.8823 44.3547 64.9479 43.5914 65.0791 42.8877C65.2222 42.1721 65.4369 41.5519 65.7231 41.0271C66.0213 40.5023 66.4089 40.0908 66.886 39.7926C67.3631 39.4825 67.9356 39.3275 68.6035 39.3275C69.2595 39.3275 69.826 39.4468 70.3031 39.6853C70.7921 39.9238 71.1976 40.2578 71.5196 40.6872C71.6906 40.907 71.8397 41.1502 71.9669 41.4169V49.2401C71.6735 49.8506 71.268 50.3391 70.7503 50.7058C70.1778 51.0994 69.4503 51.2962 68.5677 51.2962C67.8879 51.2962 67.3094 51.1531 66.8323 50.8668C66.3672 50.5687 65.9855 50.1572 65.6873 49.6324C65.4011 49.0957 65.1924 48.4814 65.0612 47.7897C64.9419 47.0979 64.8823 46.3525 64.8823 45.5534Z" fill="white"/>
<path d="M98.0333 40.4904V44.9809H91.557V52.3875H86.6729V44.9809H80.1786V40.4904H86.6729V33.4236H91.557V40.4904H98.0333Z" fill="white"/>
</svg>
